<?xml version="1.0" encoding="utf-8"?>
<!-- Generator: Adobe Illustrator 27.2.0, SVG Export Plug-In . SVG Version: 6.00 Build 0)  -->
<svg version="1.1"
	 id="Layer_1" xmlns:rdf="http://www.w3.org/1999/02/22-rdf-syntax-ns#" xmlns:dc="http://purl.org/dc/elements/1.1/" xmlns:cc="http://creativecommons.org/ns#"
	 xmlns="http://www.w3.org/2000/svg" xmlns:xlink="http://www.w3.org/1999/xlink" x="0px" y="0px" viewBox="0 0 800 800"
	 style="enable-background:new 0 0 800 800;" xml:space="preserve">
<style type="text/css">
	.st0{fill:#00E6A8;}
	.st1{fill:#00FFBB;}
	.st2{fill:#9370DB;}
	.st3{fill:#7F56D4;}
	.st4{fill:#00CC96;}
	.st5{fill-rule:evenodd;clip-rule:evenodd;fill:#9370DB;}
</style>
<path class="st0" d="M33.3,300v100v66.7V700c0,36.7,29.8,66.7,66.7,66.7h300h300c36.8,0,66.7-30,66.7-66.7V466.7V400V300H33.3z"/>
<path class="st1" d="M33.3,266.7v100v66.7v233.3c0,36.7,29.8,66.7,66.7,66.7h300h300c36.8,0,66.7-30,66.7-66.7V433.3v-66.7v-100
	H33.3z"/>
<path class="st1" d="M66.7,200C29.8,200,0,230,0,266.7v66.7h800v-66.7c0-36.7-29.8-66.7-66.7-66.7h-66.7H433.3h-66.7H133.3H66.7z"/>
<rect x="300" y="166.7" class="st2" width="200" height="600"/>
<path class="st3" d="M262.8,33.3c-33.3-3.3-65.8,13.3-83.6,40c-25.9,40-10.4,90,34.5,113.3c14.4,10,29.9,13.3,45.5,13.3h7.7h110
	h46.2h110h7.7c15.6,0,31.4-3.3,45.8-13.3c44.9-23.3,60-73.3,34.1-113.3c-25.9-40-83.1-53.3-128-30C478.3,50,466.9,60,459,73.3h-0.7
	c-1.1,3.3-2,3.3-2.9,6.7L400,163.3L344.6,80c-0.9-3.3-1.9-3.3-2.9-6.7h-0.7C333,60,322,50,307.6,43.3
	C293.5,36.7,278,33.3,262.8,33.3L262.8,33.3z M257.3,73.3c9,0,18.3,3.3,26.8,6.7c2.8,0,5.4,3.3,7.7,3.3c1.6,3.3,3,3.3,4.4,6.7h1.1
	c0.8,0,1.5,3.3,2.2,3.3h1.1h0.4c0.5,3.3,1.4,3.3,1.8,3.3l38.9,60h-77.7h-4.4h-1.8H254h-1.8c-2.1,0-4.1,0-6.2-3.3c-3,0-6,0-8.8-3.3
	c-5.6,0-10.6-6.7-14.3-10c-11-13.3-12.7-30-2.9-46.7C228,83.3,242.3,73.3,257.3,73.3L257.3,73.3z M542.9,73.3c15,0,29.3,10,37.4,20
	c9.7,16.7,7.7,33.3-3.3,46.7c-3.7,3.3-8.3,10-13.9,10c-2.8,3.3-5.8,3.3-8.8,3.3c-2.1,3.3-4.5,3.3-6.6,3.3h-1.8h-3.7h-1.8H536h-77.7
	l38.8-60c0.5,0,1.3,0,1.8-3.3h0.4c0.1,0-0.1,0,0,0h1.1c0.7,0,1.5-3.3,2.2-3.3h1.1c1.4-3.3,3.1-3.3,4.8-6.7c2.4,0,4.9-3.3,7.7-3.3
	C524.6,76.7,533.9,73.3,542.9,73.3L542.9,73.3z"/>
<rect x="33.3" y="333.3" class="st0" width="733.3" height="100"/>
<rect x="300" y="333.3" class="st3" width="200" height="100"/>
<rect x="300" y="733.3" class="st3" width="200" height="33.3"/>
<rect x="33.3" y="333.3" class="st4" width="266.7" height="33.3"/>
<rect x="500" y="333.3" class="st4" width="266.7" height="33.3"/>
<path class="st5" d="M546.7,607.2c0-13.8,11.2-25,25-25H705c13.8,0,25,11.2,25,25s-11.2,25-25,25H571.7
	C557.9,632.2,546.7,621,546.7,607.2z M546.7,707.2c0-13.8,11.2-25,25-25H705c13.8,0,25,11.2,25,25s-11.2,25-25,25H571.7
	C557.9,732.2,546.7,721,546.7,707.2z"/>
<path class="st5" d="M166.7,385.3c13.8,0,25,11.2,25,25v41.7h41.7c13.8,0,25,11.2,25,25c0,13.8-11.2,25-25,25h-41.7v41.7
	c0,13.8-11.2,25-25,25c-13.8,0-25-11.2-25-25v-41.7H100c-13.8,0-25-11.2-25-25c0-13.8,11.2-25,25-25h41.7v-41.7
	C141.7,396.4,152.9,385.3,166.7,385.3z"/>
<path class="st5" d="M99,591.5c9.8-9.8,25.6-9.8,35.4,0l32.3,32.3l32.3-32.3c9.8-9.8,25.6-9.8,35.4,0c9.8,9.8,9.8,25.6,0,35.4
	L202,659.2l32.3,32.3c9.8,9.8,9.8,25.6,0,35.4c-9.8,9.8-25.6,9.8-35.4,0l-32.3-32.3l-32.3,32.3c-9.8,9.8-25.6,9.8-35.4,0
	c-9.8-9.8-9.8-25.6,0-35.4l32.3-32.3L99,626.9C89.2,617.1,89.2,601.3,99,591.5z"/>
<path class="st5" d="M546.7,476.9c0-13.8,11.2-25,25-25H705c13.8,0,25,11.2,25,25c0,13.8-11.2,25-25,25H571.7
	C557.9,501.9,546.7,490.7,546.7,476.9z"/>
</svg>
